<svg class="c-logo" xmlns="http://www.w3.org/2000/svg" width="572.7" height="154.4" viewBox="0 0 572.7 154.4">
  <path class="c-logo__type" d="M34.9 131.8"></path>
  <path class="c-logo__type" d="M287 60.2c-6.3-9.6-19.1-12.6-26.9-12.6-22.8 0-44.1 17.2-44.1 45.1 0 27.6 21.3 45.1 44.1 45.1 8.5 0 21.3-3.9 26.9-12.8v11.1h22.6V49.5H287v10.7zM263.3 116c-12.4 0-23.9-9.5-23.9-23.4 0-14.1 11.5-23.4 23.9-23.4 11.9 0 23.7 8.3 23.7 23.4 0 14.9-11.5 23.4-23.7 23.4zM457.8 47.6c-24.7 0-44.9 17.6-44.9 44.9 0 27.3 20.2 45.4 44.9 45.4 15.9 0 32.6-6.1 40.4-20.9-5.6-3-11.9-6.3-17.2-9.3-4.1 7.4-13 11.1-21.7 11.1-12.8 0-22.4-7-23.9-18.5h66c.2-2 .4-5.6.4-7.8 0-27.3-19.3-44.9-44-44.9zm-22.6 37.3c1.7-11.7 10.9-18.4 22.8-18.4 11.1 0 20 6.5 21.7 18.4h-44.5zM326.7 16.5h22.6v119.6h-22.6zM562.8 47.6c-9.8 0-20 6.5-24.5 22.2V49.5h-22.6v86.6h22.6v-30.6c0-23 6.3-36.7 21.7-36.7 2.2 0 7.4 0 12.7 2.2V49c-2.8-.8-6-1.4-9.9-1.4zM388.9 49.5v-33h-22.4v119.6h22.4V67.7h19.4V49.5z"></path>
  <path class="c-logo__mark" d="M59.8 133.9H38.7l68.1-112.3L93.7 0 0 154.4h73.6l20.1-33.1 20.1 33.1H140l-33.2-54.7 10.6-17.5 43.8 72.2h26.2L117.4 39z"></path>
  <path class="c-logo__shading" d="M117.4 82.2l6 10 13.1-21.6-6-10zM99.7 131.2l13.1-21.6-6-9.9 10.6-17.5-43.8 72.2 20.1-33.1z"></path>
</svg>