<?xml version="1.0" encoding="utf-8"?>
<!-- Generator: Adobe Illustrator 19.1.0, SVG Export Plug-In . SVG Version: 6.00 Build 0)  -->
<svg version="1.1" id="Layer_1" xmlns="http://www.w3.org/2000/svg" xmlns:xlink="http://www.w3.org/1999/xlink" x="0px" y="0px"
	 viewBox="-139 141.4 320.4 118.6" style="enable-background:new -139 141.4 320.4 118.6;" xml:space="preserve">
<style type="text/css">
	.st0{fill:#6F6F70;}
	.st1{fill:#ED2E84;}
	.st2{fill:#00BBE2;}
	.st3{fill:#7B2C87;}
</style>
<g>
	<path class="st0" d="M-123.4,216.1c-6.7,0-11.6,5-11.6,11.6c0,6.5,4.9,11.6,11.6,11.6c6.8,0,11-5,11-11.6S-116.7,216.1-123.4,216.1
		 M-139,213.1h4.1v4.8h0.1c2.7-3.9,7.4-5.6,11.3-5.6c9.1,0,15.5,6.5,15.5,15.3c0,8.8-6.4,15.3-15.5,15.3c-3.8,0-8.6-1.7-11.3-5.6
		h-0.1V260h-4.1C-139,260-139,213.1-139,213.1z"/>
	<path class="st0" d="M-83.4,216.1c-6.7,0-10.9,5-10.9,11.6c0,6.5,4.2,11.6,10.9,11.6c6.8,0,11-5,11-11.6S-76.6,216.1-83.4,216.1
		 M-83.4,242.9c-9,0-15.4-6.5-15.4-15.3c0-8.8,6.4-15.3,15.4-15.3c9.1,0,15.5,6.5,15.5,15.3C-67.9,236.4-74.3,242.9-83.4,242.9"/>
	<path class="st0" d="M-41.9,220c-1.2-2.4-3.3-3.9-6.3-3.9c-2.9,0-6,1.2-6,4.4c0,2.7,1.9,3.7,5.7,4.6l4.2,1c4,0.9,7.1,3.9,7.1,8
		c0,6.3-5.7,8.9-11.3,8.9c-4.4,0-8.4-1.6-11.2-5.7l3.5-2.4c1.7,2.6,4.2,4.3,7.6,4.3s6.8-1.5,6.8-4.8c0-2.9-2.5-3.9-5.5-4.7l-4-0.9
		c-2-0.5-7.4-2.1-7.4-7.7c0-6,5.3-8.8,10.7-8.8c4,0,7.8,1.4,9.7,5.2L-41.9,220z"/>
	<path class="st0" d="M-11.1,220c-1.2-2.4-3.3-3.9-6.3-3.9c-2.9,0-6,1.2-6,4.4c0,2.7,1.9,3.7,5.7,4.6l4.2,1c4,0.9,7.1,3.9,7.1,8
		c0,6.3-5.7,8.9-11.3,8.9c-4.4,0-8.4-1.6-11.2-5.7l3.5-2.4c1.7,2.6,4.2,4.3,7.6,4.3s6.8-1.5,6.8-4.8c0-2.9-2.5-3.9-5.5-4.7l-4-0.9
		c-2-0.5-7.4-2.1-7.4-7.7c0-6,5.3-8.8,10.7-8.8c4,0,7.8,1.4,9.7,5.2L-11.1,220z"/>
	<path class="st0" d="M8.1,242.2H4v-29.1h4.1V242.2z M6,204.9c-1.5,0-3-1.2-3-3c0-1.7,1.5-3,3-3s3,1.2,3,3
		C9,203.7,7.5,204.9,6,204.9"/>
	<path class="st0" d="M36.6,216.1c-6.7,0-11.6,5-11.6,11.6c0,6.5,4.9,11.6,11.6,11.6c6.8,0,11-5,11-11.6S43.4,216.1,36.6,216.1
		 M21.1,195.2h4.1v22.7h0.1c2.7-3.9,7.4-5.6,11.3-5.6c9.1,0,15.5,6.5,15.5,15.3c0,8.8-6.4,15.3-15.5,15.3c-3.9,0-8.6-1.7-11.3-5.6
		h-0.1v4.8h-4.1V195.2z"/>
	<rect x="63.1" y="195.2" class="st0" width="4.1" height="47"/>
	<path class="st0" d="M102.1,225.4c0-5.5-3.5-9.3-9.4-9.3c-5.3,0-10.2,4.5-10.2,9.3H102.1z M82.4,228.8c0.5,5.8,4.9,10.4,10.7,10.4
		c4.3,0,7.7-2.4,9.3-5l3.2,2.6c-3.4,4.3-7.7,6.2-12.5,6.2c-8.6,0-15-6.5-15-15.3c0-8.8,6.4-15.3,14.7-15.3
		c8.8,0.1,13.9,6.6,13.9,14.5v1.9H82.4L82.4,228.8z"/>
	<polygon class="st1" points="152.5,186.9 152.5,195.2 152.5,215.8 127.8,215.8 127.8,195.2 107.2,195.2 107.2,170.5 127.8,170.5 
		136,170.5 136,186.9 	"/>
	<polygon class="st2" points="160.8,186.9 152.5,186.9 152.5,170.5 136,170.5 136,162.2 136,141.6 160.8,141.6 160.8,162.2 
		181.4,162.2 181.4,186.9 	"/>
	<rect x="136" y="170.5" class="st3" width="16.5" height="16.4"/>
</g>
</svg>
