<?xml version="1.0" encoding="utf-8"?>
<!-- Generator: Adobe Illustrator 19.0.0, SVG Export Plug-In . SVG Version: 6.00 Build 0)  -->
<svg version="1.1" id="Layer_1" xmlns="http://www.w3.org/2000/svg" xmlns:xlink="http://www.w3.org/1999/xlink" x="0px" y="0px"
	 viewBox="0 0 762.1 330.5" style="enable-background:new 0 0 762.1 330.5;" xml:space="preserve">
<style type="text/css">
	.st0{fill:#027360;}
</style>
<g>
	<g>
		<g>
			<path class="st0" d="M166.1,89.6c38.8,0,75.3,28.6,75.3,77c0,21.9-7.5,39.9-19.2,52.8l17.5,19.6l-16.9,14.4l-18.2-19.8
				c-11.5,6.7-25,10.2-38.6,10.2c-38.8,0-75.1-28.6-75.1-77.2C91,118.2,127.3,89.6,166.1,89.6z M166.1,220c7.5,0,15.2-1.5,22.1-4.8
				l-24.4-27.1l17.1-14.6l24.6,27.3c6.3-8.6,10.2-19.8,10.2-34.2c0-35.7-24.6-53.4-49.7-53.4c-24.8,0-49.5,17.7-49.5,53.4
				C116.6,202.3,141.3,220,166.1,220z"/>
			<path class="st0" d="M297.6,243.6c-24.2,0-38.4-17.9-38.4-40.5V139h24.2v59.7c0,12.5,5.8,23.2,20.5,23.2c14,0,21.3-9.4,21.3-22.7
				V139h24.2v83.1c0,8.3,0.6,14.8,1,18.6h-23.2c-0.4-2.3-0.8-7.1-0.8-11.3C321.3,238.6,309.5,243.6,297.6,243.6z"/>
			<path class="st0" d="M387.3,87.5c8.8,0,15.9,7.1,15.9,15.9c0,8.8-7.1,15.7-15.9,15.7c-8.6,0-15.7-6.9-15.7-15.7
				C371.6,94.6,378.7,87.5,387.3,87.5z M375.4,240.7V139h24v101.6H375.4z"/>
			<path class="st0" d="M425.5,240.7V89.6h24.2v151.1H425.5z"/>
			<path class="st0" d="M475.8,240.7V89.6H500v151.1H475.8z"/>
		</g>
	</g>
	<path class="st0" d="M590.6,225.4c-2,0-3.8-1.1-4.6-3.1l-4.7-11.1l-11.7,2.7c-2.7,0.6-5.4-1.1-6-3.8c-0.6-2.7,1.1-5.4,3.8-6
		l15.8-3.6c2.4-0.5,4.8,0.7,5.7,2.9l6.3,14.9c1.1,2.5-0.1,5.5-2.7,6.5C591.9,225.2,591.3,225.4,590.6,225.4z"/>
	<path class="st0" d="M569.2,240c-0.8,0-1.6-0.2-2.3-0.6c-1.6-0.8-2.7-2.5-2.7-4.3l-0.6-26c-0.1-2.8,2.1-5.1,4.9-5.1
		c0,0,0.1,0,0.1,0c2.7,0,4.9,2.2,5,4.9l0.4,16.8l13.9-9.5c2.3-1.6,5.4-1,6.9,1.3c1.6,2.3,1,5.4-1.3,6.9L572,239.1
		C571.1,239.7,570.2,240,569.2,240z"/>
	<path class="st0" d="M643.5,68.5c3.3,0,6.7,0.8,9.9,2.4c10.7,5.5,14.9,18.5,9.4,29.2l-36.1,70.4l-32,14.9l-6.6-34.7l36.1-70.4
		C628,72.8,635.6,68.5,643.5,68.5 M643.5,58.5c-11.9,0-22.8,6.6-28.2,17.2l-36.1,70.4c-1,2-1.3,4.2-0.9,6.4l6.6,34.7
		c0.6,3,2.5,5.6,5.3,7c1.4,0.7,3,1.1,4.6,1.1c1.4,0,2.9-0.3,4.2-0.9l32-14.9c2-0.9,3.7-2.5,4.7-4.5l36.1-70.4
		c8-15.5,1.8-34.7-13.7-42.6C653.5,59.7,648.5,58.5,643.5,58.5L643.5,58.5z"/>
	<path class="st0" d="M617.7,145.5c-0.8,0-1.6-0.2-2.3-0.6c-1.4-0.7-2.3-2-2.6-3.5l-6.6-34.7c-0.5-2.7,1.3-5.3,4-5.8
		c2.7-0.5,5.3,1.3,5.8,4l5.4,28.4l26.2-12.2c2.5-1.2,5.5-0.1,6.6,2.4c1.2,2.5,0.1,5.5-2.4,6.6l-32,14.9
		C619.1,145.3,618.4,145.5,617.7,145.5z"/>
	<path class="st0" d="M584.3,210.4c-0.8,0-1.5-0.2-2.3-0.6c-2.5-1.3-3.4-4.3-2.2-6.7l57.2-111.5c1.3-2.5,4.3-3.4,6.7-2.2
		c2.5,1.3,3.4,4.3,2.2,6.7l-57.2,111.5C587.9,209.4,586.2,210.4,584.3,210.4z"/>
	<path class="st0" d="M569.2,240h-42.5c-2.8,0-5-2.2-5-5c0-2.8,2.2-5,5-5h42.5c2.8,0,5,2.2,5,5C574.2,237.8,572,240,569.2,240z"/>
</g>
</svg>
