<?xml version="1.0" encoding="utf-8"?>
<!-- Generator: Adobe Illustrator 20.0.0, SVG Export Plug-In . SVG Version: 6.00 Build 0)  -->
<!DOCTYPE svg PUBLIC "-//W3C//DTD SVG 1.1//EN" "http://www.w3.org/Graphics/SVG/1.1/DTD/svg11.dtd">
<svg version="1.1" id="Layer_1" xmlns="http://www.w3.org/2000/svg" xmlns:xlink="http://www.w3.org/1999/xlink" x="0px" y="0px"
	 viewBox="0 0 696.7 515" style="enable-background:new 0 0 696.7 515;" xml:space="preserve">
<style type="text/css">
	.st0{fill:#612075;}
	.st1{fill:#231F20;}
</style>
<g>
	<path class="st0" d="M108.1,442.6c30.9-76.8,57.2-160.6,96.1-231.8c4.2-0.7,11.2-1.1,19.6-1.1c15.4,0,35.1,1.4,47,4.6
		c5.6-9.1,8.4-18.2,8.4-26.7c0-22.1-18.6-38.9-45.9-38.9c-45.9,0-97.8,11.6-130.8,11.6c-9.1,0-17.9-1.4-27-7
		c-4.2,8.4-10.5,24.2-10.5,38.2c0,21.7,17.2,29.1,36.1,29.1c9.8,0,20.3-1.4,31.2-1.4c-22.8,63.1-69.8,156.1-69.8,184.8
		C62.5,430.4,86,441.9,108.1,442.6L108.1,442.6z M346.7,279.2c0-22.1-13-39.6-45.2-39.6c-56.5,0-124.9,88.4-124.9,145.5
		c0,33.7,23.1,47.3,51.6,47.3c47.3,0,98.2-32.3,101.7-78.2c-9.5,14-46.3,32.6-70.5,32.6c-16.5,0-22.8-8.8-22.8-20.7
		c0-34.4,36.5-72.9,53.3-72.9c4.9,0,8.1,3.5,8.1,11.6c0,11.2-11.6,27-23.8,27c-4.6,0-8.8-2.1-13-7c-3.9,1.8-12.3,13.3-12.3,23.5
		c0,13,8.8,18.9,21,18.9C298.7,367.2,346.7,333.9,346.7,279.2L346.7,279.2z"/>
	<g>
		<path class="st0" d="M627.3,168.7c2.5,0,3.9,2.5,3.9,8.4c0,11.6-10.5,34.4-43.5,52.3C598.2,203.8,614,168.7,627.3,168.7
			L627.3,168.7z M503.5,252.9c7,4.6,14.7,7.7,22.8,9.8c-24.5,59.6-50.9,121.7-50.9,135.4c0,24.2,19.3,33.7,42.4,33.7
			c13-49.8,48-138.5,94.7-138.5c-18.6,33.3-51.2,103.5-51.2,153.3c0,31.6,13.3,55.1,51.9,55.1c34.4,0,60-39.3,64.5-68.7
			c-14.7,6-26,8.8-34.4,8.8c-17.2,0-23.5-10.5-23.5-26C619.9,362,676,304.1,676,269c0-17.9-9.8-25.6-24.2-25.6
			c-23.8,0-60.7,21-89.1,53.3c4.2-12.3,8.1-23.1,11.9-33.3c52.3-11.6,100-58.6,100-95.4c0-19.3-16.1-32.3-48.7-32.3
			c-63.1,0-70.1,53.3-87.3,96.4l-6.7,16.5C523.1,250.5,513.7,251.9,503.5,252.9L503.5,252.9z"/>
	</g>
	<path class="st1" d="M357,187.7c-0.7,0-1-0.7-1-2c1.6-10.7,7.8-21.6,7.8-29.5c0-5.6-8.4-8.9-12.9-8.9c-2.6,9.4-12.3,39.2-22.7,39.2
		c-0.5,0-0.8-0.8-0.8-2.4c0-5.8,6.4-21.5,6.4-27.3c0-7.4-8.4-9.7-14-9.8c-2.5,17.5-11,37.2-11,47.6c0,7.7,5.4,14,11.8,14
		c6.8,0,13.2-9.2,18.4-17c0,11.5,5.6,17,12.1,17c14.1,0,33.6-31.6,40.2-55.8c11-1.4,22-7.5,22-15.8c0-2.6-1-5.4-3.5-8.3
		c-4.6,4.6-10.5,8.1-16.2,10.3v-0.8c0-8.7-6-12.7-12.3-12.7c-7,0-10.6,5.7-10.6,11.9c0,4.3,1.6,8.7,5.1,11.8
		C374.1,166.9,362.8,187.7,357,187.7L357,187.7z M410.9,160.6c1.1-8.9,12.7-24.4,12.7-32.2c0-6-4.3-7.7-9.3-7.7
		c-1.9,0-3.8,0.2-5.8,0.5c-4.5,20-29,63.2-29,76.2c0,7.4,4.6,11.3,12,11.3c6.2-23.7,18.3-42.8,29.5-42.8c-5.8,10.4-16,32.2-16,47.8
		c0,9.8,4.2,17.2,16.2,17.2c10.7,0,18.7-12.2,20.1-21.4c-4.6,1.9-8.1,2.7-10.7,2.7c-5.4,0-7.3-3.3-7.3-8.1
		c0-16.7,17.5-34.8,17.5-45.7c0-6.2-4.2-8.5-9.4-8.5C423.6,149.8,413.2,155.1,410.9,160.6L410.9,160.6z M456.7,193.6
		c-2.6,0-3.7-2-3.7-4.6c0-2.4,0.9-5.6,2.4-8.3c3.3,1.7,7.4,3.2,11.9,4.4C464.1,189.9,460.1,193.6,456.7,193.6L456.7,193.6z
		 M459.8,167.6c0-2.3,3.2-5.7,6.9-5.7c3,0,6.6,3,6.6,7c0,2.1-0.5,4.4-1.3,6.8C464.6,174.6,459.8,172,459.8,167.6L459.8,167.6z
		 M436.7,193.4c0,8.9,8.3,15.6,16.5,15.6c13.1,0,24-9.5,30.6-21.3c4.2,0.4,8.5,0.5,12.8,0.5c25.2,0,50.6-6.4,50.6-19.2
		c0-3.1-1.5-6.4-4.8-10.3c-9.2,9.1-33.7,15.8-53.7,17.3c1.1-3.9,1.6-7.8,1.6-11.4c0-12.2-7.4-17.3-16.6-17.3
		c-17.3,0-27.3,11.4-27.3,21.6c0,0.8,0,1.4,0.2,2.1C441,175.4,436.7,183.6,436.7,193.4L436.7,193.4z"/>
	<g>
		<path class="st1" d="M81,100.8c1.2-13.1,9.7-30.8,9.7-41.2c0-8-5.5-14.4-13.4-14.4c-1.4,0-2.9,0.2-4.5,0.7c0,19.5-18,38.7-31,51.9
			c2.3-12.9,11.7-28.1,11.7-39.1c0-8.2-8.4-14.6-16.1-14.6c-0.9,0-1.9,0-2.7,0.2c0.5,1.6,0.8,3.4,0.8,5.1
			c0,10.4-16.8,46.9-16.8,66.1c0,11.3,6.9,18.5,14.3,18.5c3.2,0,4.9-0.5,5.7-1c6.4-6.9,17.1-19.9,24.3-27.1c-0.5,4.1-0.9,7.9-0.9,11
			c0,12.7,4.6,17.5,13.5,17.5c2.1,0,4.5-0.2,7.1-0.8c13.4-30,47.4-54.1,47.4-92.9c0-12.2-5.3-22-21.9-22c-5.8,0-11.8,2.2-17.1,6.9
			c13.1,2.6,19.5,10,19.5,20.9C110.5,60.3,100.4,79.4,81,100.8L81,100.8z"/>
	</g>
	<path class="st1" d="M129.2,117c-2.6,0-3.7-2-3.7-4.6c0-2.4,0.9-5.3,2.3-8.2c3.7,1.6,8.1,2.6,12.9,2.9
		C137.3,112.6,132.8,117,129.2,117L129.2,117z M132.2,91c0-2.3,3.2-5.7,6.9-5.7c2.9,0,6.5,2.9,6.5,7c0,1.6-0.3,3.5-0.9,5.3
		c-0.7,0.1-1.4,0.1-2.1,0.1C136.5,97.8,132.2,95.6,132.2,91L132.2,91z M109.2,116.8c0,8.8,8.3,15.6,16.5,15.6
		c15.1,0,27.4-12.8,33.3-26.9c7.4-2,22.7-7,22.7-15.8c0-2.1-0.8-4.3-2.7-6.8c-4.5,4.4-9.6,8.2-16.5,9.8c0.2-1.5,0.3-3.1,0.3-4.6
		c0-12.2-7.4-17.2-16.6-17.2c-17.2,0-27.3,11.3-27.3,21.6c0,0.8,0.1,1.4,0.2,2.1C113.5,98.8,109.2,107,109.2,116.8L109.2,116.8z
		 M229.7,113.5c0-4.1,14-23.9,14-34.1c0-3.6-1.7-6.1-6.7-6.1c-5.1,0-12.5,4.4-19.4,11.8c0-8.3-2.9-11.6-7.3-11.6
		c-6.1,0-15.2,6.7-22.8,15.2c2.4-3.9,3.5-7.2,3.5-9.9c0-4.6-3.3-7.3-8.9-7.3c-1.7,0-3.7,0.2-5.9,0.8c0,9.3-18.8,44.9-18.8,49.6
		c0,6.2,4.5,10.3,11,10.3c0.5,0,1.2,0,1.7-0.1c4.3-14.4,16.3-35.7,24-35.7c-3.2,9.2-11,17.8-11,27.3c0,5.1,4.7,8.2,9.7,8.2
		c1.2,0,2.4-0.1,3.6-0.5c2.7-13.5,18.9-35.8,24.8-35.8c-2.5,3.8-10,17.9-10,27.8c0,5.9,2.6,10.4,10.7,10.4c10.7,0,20.2-14,21.6-23.1
		c-2.4,1.9-8.1,5.6-11.3,5.6C230.6,116,229.7,115.4,229.7,113.5L229.7,113.5z M273.8,105.3c2-1.5,2.1-6,2.1-9.9
		c-1.3,0.2-2.1,0.2-2.8,0.2c-4.5,0-6.2-1.4-6.2-3.2c0-3.1,5.2-7.2,10.4-7.2c3.8,0,7.4,2.3,8.8,8.9c4.5-4.3,7-9.6,7-14.1
		c0-5.3-3.6-9.5-12-9.5c-13,0-29.5,9.6-29.5,20.5c0,3.3,1.5,6.8,5,10c-9.1,1.3-16.7,11.2-16.7,19.9c0,6.8,4.7,12.7,17.3,12.7
		c19.4,0,29.8-15.3,33.2-31c-7.6,8.9-20.2,15.9-26.9,15.9c-2.4,0-3.6-1.2-3.6-2.9C259.9,112.3,264.5,107.1,273.8,105.3L273.8,105.3z
		"/>
</g>
<path class="st0" d="M479.7,308.7c0,0,21.2-19.7,22.3-41.5c0.7-14.1-7-33.8-34.3-33.8c-77.6,0-136,97.5-136,145.2
	c0,51.8,40.9,53,56.4,53c78.7,0,94.8-93,94.8-93s-29.9,42.5-76.8,42.5c-17,0-16.2-14.5-16.2-18.8c0-24.5,34.1-76.7,64.7-76.7
	C471.2,285.5,479.7,308.7,479.7,308.7z"/>
<path class="st1" d="M303.2,72c-3.8,15.8-21.1,43.9-21.1,52.6c0,4.7,7.4,7.7,13.5,7.7c2.6-10.1,13.5-35.6,24-35.6
	c-3.2,7.5-8.9,15.8-8.9,25.8c0,5.3,3.2,9.7,11.2,9.7c16.6,0,20.9-21.4,20.9-21.4s-6.8,5.3-11.2,5.3c-0.7,0-2.4-0.3-2.4-2.5
	c0-8.1,13.3-22.7,13.3-30.8c0-5.4-3.5-8.2-6.6-8.2c-2.4,0-7,0-14,6.3c-3.8,3.5-7.7,7-7.7,7s1.3-3.6,1.3-7
	C315.7,75.3,308.1,72,303.2,72z"/>
</svg>
